<?xml version="1.0" encoding="UTF-8"?>
<!DOCTYPE svg PUBLIC "-//W3C//DTD SVG 1.1//EN" "http://www.w3.org/Graphics/SVG/1.1/DTD/svg11.dtd">
<!-- Creator: CorelDRAW -->
<svg xmlns="http://www.w3.org/2000/svg" xml:space="preserve" width="1.32683in" height="0.293925in" version="1.1" style="shape-rendering:geometricPrecision; text-rendering:geometricPrecision; image-rendering:optimizeQuality; fill-rule:evenodd; clip-rule:evenodd"
viewBox="0 0 1286.08 284.9"
 xmlns:xlink="http://www.w3.org/1999/xlink"
 xmlns:xodm="http://www.corel.com/coreldraw/odm/2003">
 <defs>
  <style type="text/css">
   <![CDATA[
    .str3 {stroke:#FEFEFE;stroke-width:45.29;stroke-linecap:round;stroke-linejoin:round;stroke-miterlimit:22.9256}
    .str0 {stroke:#E5097F;stroke-width:46.31;stroke-linecap:round;stroke-linejoin:round;stroke-miterlimit:22.9256}
    .str1 {stroke:#E5097F;stroke-width:46.31;stroke-linecap:round;stroke-linejoin:round;stroke-miterlimit:22.9256}
    .str2 {stroke:#E5097F;stroke-width:50.32;stroke-linecap:round;stroke-linejoin:round;stroke-miterlimit:22.9256}
    .str5 {stroke:#FEFEFE;stroke-width:41.68;stroke-linecap:round;stroke-linejoin:round;stroke-miterlimit:22.9256}
    .str6 {stroke:#FEFEFE;stroke-width:41.68;stroke-linecap:round;stroke-linejoin:round;stroke-miterlimit:22.9256}
    .str7 {stroke:#727271;stroke-width:11.58;stroke-linecap:round;stroke-linejoin:round;stroke-miterlimit:22.9256}
    .str8 {stroke:#727271;stroke-width:11.58;stroke-linecap:round;stroke-linejoin:round;stroke-miterlimit:22.9256}
    .str4 {stroke:#E5097F;stroke-width:12.58;stroke-linecap:round;stroke-linejoin:round;stroke-miterlimit:22.9256}
    .fil0 {fill:none}
   ]]>
  </style>
 </defs>
 <g id="Layer_x0020_1">
  <metadata id="CorelCorpID_0Corel-Layer"/>
  <path class="fil0 str0" d="M474.08 150.27c13.34,-6.01 33.46,-9.19 49.93,-11.72m-384.06 4.78c22.55,-48.57 -19.96,-91.15 -63.02,-82.48 -78.65,15.83 -64.89,130.97 1.56,135.9 27.67,2.06 18.82,-25.46 -5.88,-15.28 -53.28,21.97 -26.49,100.32 24.71,75.51 22.64,-10.98 44.78,-42.29 59.14,-52.98 5.49,-4.08 7.08,-3.13 9.35,1.81 5.58,12.1 9,26.23 13.65,38.47 2.66,6.99 4.83,6.08 9.24,3.69 10.61,-5.74 24.27,-25.03 25.27,-38.21 0.37,-4.93 0.18,-3.92 2.96,-1.83 3.52,2.64 51.19,27.57 73.3,2.17 14.55,-16.71 2.21,-44.72 -14.66,-17.41 -11.27,18.26 -10.71,53.3 15.76,57.42 27.18,4.24 57,-23.93 67,-44.1 8.42,-16.99 13.68,-18.81 15.52,-6.46 4,26.87 2.95,36.31 3.17,41.38 0.28,6.3 1.72,5.93 2.57,-0.13 2.34,-16.65 35.13,-59.9 37.94,-37.79 2.03,15.96 3.87,45.25 16.14,42.45 20.1,-4.58 53.52,-60.42 65.95,-103.55 5.56,-19.28 6.07,-31.99 5.24,-28.28 -4.68,20.85 -18.74,141.55 17.56,140.78 19.78,-0.42 47.09,-22.71 64.02,-38.56"/>
  <path class="fil0 str1" d="M1000.03 206.89c1.1,-8.2 25.34,-25.56 27.5,-14.93 2.67,13.17 2.87,39.58 2.07,48.94 -0.39,4.51 1.49,4.09 2.02,0.11 1.16,-8.74 4.03,-14.83 7.99,-20.17 6.81,-9.17 31.67,-44.96 33.73,-14.1 0.73,10.98 2.06,23.45 2.31,29.46 0.13,3.06 1.6,3.42 1.67,0.11 0.12,-5.51 2.07,-9.7 5.22,-14.04 26.92,-37.02 32.02,-33.28 33.69,-18.81 1.08,9.33 1.72,28.51 6.08,35 3.91,5.83 10.48,8.32 18.95,7.14 32.97,-4.59 78.77,-49.45 59.85,-69.8 -7.88,-8.48 -28.92,18.23 -21.93,47.81 6.08,25.74 46.54,30.85 83.75,-12.6"/>
  <path class="fil0 str2" d="M606.25 155.03c25.46,38.33 117.46,-51.93 111.95,-104.1 -4.27,-40.46 -52.39,-43.97 -27.95,66.25 14.64,66.01 26.72,140.32 33.34,134.89 1.92,-1.58 7.72,-33.17 1.16,-66.11 -6.56,-32.94 -27.67,-44.18 -18.58,-30.19 9.1,14 56.02,19.84 71.81,-1.83 3.83,-5.26 5.64,-1.14 2.91,2.17 -15.54,18.85 5.66,49.33 27.87,33.96 20.26,-14.01 15.98,-44.99 -1.17,-47.56 -18.87,-2.82 -5.51,5.88 9.34,7.47 19.28,2.07 57.04,-21.18 61.4,-42.66 3.11,-17.64 -16.47,-15.04 -13.39,-0.35 1.11,5.3 8.74,32.61 34.12,23.05 6.71,-2.53 8.36,-0.88 6.12,4.22 -6.58,15.02 -1.22,44 14.91,47.35 16.65,3.45 42.45,-23.03 50.32,-35.86"/>
  <path class="fil0 str3" d="M606.25 155.03c25.46,38.33 117.46,-51.93 111.95,-104.1 -4.27,-40.46 -52.39,-43.97 -27.95,66.25 14.64,66.01 26.72,140.32 33.34,134.89 1.92,-1.58 7.72,-33.17 1.16,-66.11 -6.56,-32.94 -27.67,-44.18 -18.58,-30.19 9.1,14 56.02,19.84 71.81,-1.83 3.83,-5.26 5.64,-1.14 2.91,2.17 -15.54,18.85 5.66,49.33 27.87,33.96 20.26,-14.01 15.98,-44.99 -1.17,-47.56 -18.87,-2.82 -5.51,5.88 9.34,7.47 19.28,2.07 57.04,-21.18 61.4,-42.66 3.11,-17.64 -16.47,-15.04 -13.39,-0.35 1.11,5.3 8.74,32.61 34.12,23.05 6.71,-2.53 8.36,-0.88 6.12,4.22 -6.58,15.02 -1.22,44 14.91,47.35 16.65,3.45 42.45,-23.03 50.32,-35.86"/>
  <path class="fil0 str4" d="M606.25 155.03c25.46,38.33 117.46,-51.93 111.95,-104.1 -4.27,-40.46 -52.39,-43.97 -27.95,66.25 14.64,66.01 26.72,140.32 33.34,134.89 1.92,-1.58 7.72,-33.17 1.16,-66.11 -6.56,-32.94 -27.67,-44.18 -18.58,-30.19 9.1,14 56.02,19.84 71.81,-1.83 3.83,-5.26 5.64,-1.14 2.91,2.17 -15.54,18.85 5.66,49.33 27.87,33.96 20.26,-14.01 15.98,-44.99 -1.17,-47.56 -18.87,-2.82 -5.51,5.88 9.34,7.47 19.28,2.07 57.04,-21.18 61.4,-42.66 3.11,-17.64 -16.47,-15.04 -13.39,-0.35 1.11,5.3 8.74,32.61 34.12,23.05 6.71,-2.53 8.36,-0.88 6.12,4.22 -6.58,15.02 -1.22,44 14.91,47.35 16.65,3.45 42.45,-23.03 50.32,-35.86"/>
  <path class="fil0 str5" d="M474.08 150.27c13.34,-6.01 33.46,-9.19 49.93,-11.72m-384.06 4.78c22.55,-48.57 -19.96,-91.15 -63.02,-82.48 -78.65,15.83 -64.89,130.97 1.56,135.9 27.67,2.06 18.82,-25.46 -5.88,-15.28 -53.28,21.97 -26.49,100.32 24.71,75.51 22.64,-10.98 44.78,-42.29 59.14,-52.98 5.49,-4.08 7.08,-3.13 9.35,1.81 5.58,12.1 9,26.23 13.65,38.47 2.66,6.99 4.83,6.08 9.24,3.69 10.61,-5.74 24.27,-25.03 25.27,-38.21 0.37,-4.93 0.18,-3.92 2.96,-1.83 3.52,2.64 51.19,27.57 73.3,2.17 14.55,-16.71 2.21,-44.72 -14.66,-17.41 -11.27,18.26 -10.71,53.3 15.76,57.42 27.18,4.24 57,-23.93 67,-44.1 8.42,-16.99 13.68,-18.81 15.52,-6.46 4,26.87 2.95,36.31 3.17,41.38 0.28,6.3 1.72,5.93 2.57,-0.13 2.34,-16.65 35.13,-59.9 37.94,-37.79 2.03,15.96 3.87,45.25 16.14,42.45 20.1,-4.58 53.52,-60.42 65.95,-103.55 5.56,-19.28 6.07,-31.99 5.24,-28.28 -4.68,20.85 -18.74,141.55 17.56,140.78 19.78,-0.42 47.09,-22.71 64.02,-38.56"/>
  <path class="fil0 str6" d="M1000.03 206.89c1.1,-8.2 25.34,-25.56 27.5,-14.93 2.67,13.17 2.87,39.58 2.07,48.94 -0.39,4.51 1.49,4.09 2.02,0.11 1.16,-8.74 4.03,-14.83 7.99,-20.17 6.81,-9.17 31.67,-44.96 33.73,-14.1 0.73,10.98 2.06,23.45 2.31,29.46 0.13,3.06 1.6,3.42 1.67,0.11 0.12,-5.51 2.07,-9.7 5.22,-14.04 26.92,-37.02 32.02,-33.28 33.69,-18.81 1.08,9.33 1.72,28.51 6.08,35 3.91,5.83 10.48,8.32 18.95,7.14 32.97,-4.59 78.77,-49.45 59.85,-69.8 -7.88,-8.48 -28.92,18.23 -21.93,47.81 6.08,25.74 46.54,30.85 83.75,-12.6"/>
  <path class="fil0 str7" d="M474.08 150.27c13.34,-6.01 33.46,-9.19 49.93,-11.72m-384.06 4.78c22.55,-48.57 -19.96,-91.15 -63.02,-82.48 -78.65,15.83 -64.89,130.97 1.56,135.9 27.67,2.06 18.82,-25.46 -5.88,-15.28 -53.28,21.97 -26.49,100.32 24.71,75.51 22.64,-10.98 44.78,-42.29 59.14,-52.98 5.49,-4.08 7.08,-3.13 9.35,1.81 5.58,12.1 9,26.23 13.65,38.47 2.66,6.99 4.83,6.08 9.24,3.69 10.61,-5.74 24.27,-25.03 25.27,-38.21 0.37,-4.93 0.18,-3.92 2.96,-1.83 3.52,2.64 51.19,27.57 73.3,2.17 14.55,-16.71 2.21,-44.72 -14.66,-17.41 -11.27,18.26 -10.71,53.3 15.76,57.42 27.18,4.24 57,-23.93 67,-44.1 8.42,-16.99 13.68,-18.81 15.52,-6.46 4,26.87 2.95,36.31 3.17,41.38 0.28,6.3 1.72,5.93 2.57,-0.13 2.34,-16.65 35.13,-59.9 37.94,-37.79 2.03,15.96 3.87,45.25 16.14,42.45 20.1,-4.58 53.52,-60.42 65.95,-103.55 5.56,-19.28 6.07,-31.99 5.24,-28.28 -4.68,20.85 -18.74,141.55 17.56,140.78 19.78,-0.42 47.09,-22.71 64.02,-38.56"/>
  <path class="fil0 str8" d="M1000.03 206.89c1.1,-8.2 25.34,-25.56 27.5,-14.93 2.67,13.17 2.87,39.58 2.07,48.94 -0.39,4.51 1.49,4.09 2.02,0.11 1.16,-8.74 4.03,-14.83 7.99,-20.17 6.81,-9.17 31.67,-44.96 33.73,-14.1 0.73,10.98 2.06,23.45 2.31,29.46 0.13,3.06 1.6,3.42 1.67,0.11 0.12,-5.51 2.07,-9.7 5.22,-14.04 26.92,-37.02 32.02,-33.28 33.69,-18.81 1.08,9.33 1.72,28.51 6.08,35 3.91,5.83 10.48,8.32 18.95,7.14 32.97,-4.59 78.77,-49.45 59.85,-69.8 -7.88,-8.48 -28.92,18.23 -21.93,47.81 6.08,25.74 46.54,30.85 83.75,-12.6"/>
 </g>
</svg>
