<?xml version="1.0" encoding="UTF-8"?>
<!DOCTYPE svg PUBLIC "-//W3C//DTD SVG 1.1//EN" "http://www.w3.org/Graphics/SVG/1.1/DTD/svg11.dtd">
<!-- Creator: CorelDRAW -->
<svg xmlns="http://www.w3.org/2000/svg" xml:space="preserve" width="6.24111in" height="1.61249in" version="1.1" style="shape-rendering:geometricPrecision; text-rendering:geometricPrecision; image-rendering:optimizeQuality; fill-rule:evenodd; clip-rule:evenodd"
viewBox="0 0 6744.23 1742.48"
 xmlns:xlink="http://www.w3.org/1999/xlink"
 xmlns:xodm="http://www.corel.com/coreldraw/odm/2003">
 <defs>
  <style type="text/css">
   <![CDATA[
    .str0 {stroke:#FEFEFE;stroke-width:212.72;stroke-linecap:round;stroke-linejoin:round;stroke-miterlimit:22.9256}
    .str1 {stroke:#F5B5D2;stroke-width:53.18;stroke-linecap:round;stroke-linejoin:round;stroke-miterlimit:22.9256}
    .str2 {stroke:#E5097F;stroke-width:53.18;stroke-linecap:round;stroke-linejoin:round;stroke-miterlimit:22.9256}
    .fil0 {fill:none}
   ]]>
  </style>
    <clipPath id="id0">
     <path d="M233.29 20.63l3210.85 0 -23.16 1572.77 -3210.85 0 23.16 -1572.77z"/>
    </clipPath>
    <clipPath id="id1">
     <path d="M4980.48 664.14l1615.43 0 -11 747.18 -1615.43 0 11 -747.18z"/>
    </clipPath>
    <clipPath id="id2">
     <path d="M3063.32 96.81l2165.73 0 -23.91 1623.78 -2165.73 0 23.91 -1623.78z"/>
    </clipPath>
 </defs>
 <g id="Layer_x0020_1">
  <metadata id="CorelCorpID_0Corel-Layer"/>
  <rect class="fil0" width="6744.23" height="1742.48"/>
  <g id="_1873059659056">
   <g style="clip-path:url(#id0)">
    <image x="210.13" y="20.63" width="3234.01" height="1572.77" xlink:href="event for me logo_Images\event for me logo_ImgID1.png"/>
   </g>
  </g>
  <path class="fil0 str0" d="M2596.24 766.82c61.28,-27.6 153.66,-42.22 229.35,-53.84m-1764.19 21.96c103.58,-223.1 -91.69,-418.73 -289.5,-378.91 -361.29,72.73 -298.06,601.61 7.18,624.28 127.09,9.44 86.42,-116.96 -27.03,-70.18 -244.73,100.9 -121.67,460.85 113.52,346.87 104.02,-50.41 205.68,-194.28 271.65,-243.36 25.22,-18.76 32.5,-14.4 42.97,8.3 25.63,55.57 41.32,120.5 62.71,176.72 12.22,32.13 22.2,27.92 42.46,16.95 48.74,-26.38 111.46,-114.98 116.06,-175.51 1.72,-22.64 0.81,-17.99 13.58,-8.4 16.17,12.15 235.15,126.65 336.68,9.98 66.82,-76.79 10.13,-205.41 -67.33,-79.96 -51.78,83.86 -49.18,244.81 72.38,263.79 124.87,19.49 261.86,-109.95 307.75,-202.57 38.68,-78.06 62.82,-86.41 71.27,-29.7 18.39,123.41 13.54,166.8 14.57,190.07 1.27,28.93 7.9,27.25 11.81,-0.57 10.77,-76.49 161.37,-275.17 174.3,-173.61 9.33,73.29 17.75,207.84 74.15,195 92.33,-21.02 245.85,-277.53 302.96,-475.68 25.53,-88.56 27.88,-146.93 24.07,-129.94 -21.5,95.81 -86.07,650.24 80.65,646.68 90.88,-1.94 216.31,-104.28 294.09,-177.11"/>
  <g id="_1873059659584">
   <g style="clip-path:url(#id1)">
    <image x="4969.48" y="664.14" width="1626.44" height="747.18" xlink:href="event for me logo_Images\event for me logo_ImgID2.png"/>
   </g>
  </g>
  <path class="fil0 str0" d="M5174.83 1026.93c5.05,-37.66 116.43,-117.41 126.33,-68.58 12.28,60.51 13.19,181.83 9.53,224.78 -1.77,20.72 6.85,18.81 9.29,0.52 5.34,-40.11 18.53,-68.13 36.72,-92.64 31.28,-42.12 145.49,-206.52 154.94,-64.78 3.36,50.44 9.44,107.69 10.6,135.31 0.59,14.08 7.33,15.71 7.67,0.53 0.57,-25.28 9.5,-44.56 23.97,-64.47 123.67,-170.03 147.07,-152.89 154.77,-86.41 4.96,42.83 7.9,130.97 27.9,160.76 17.96,26.76 48.13,38.23 87.05,32.81 151.48,-21.11 361.84,-227.12 274.92,-320.61 -36.19,-38.93 -132.84,83.72 -100.75,219.63 27.93,118.25 213.77,141.7 384.7,-57.88"/>
  <g id="_1873059659680">
   <g style="clip-path:url(#id2)">
    <image x="3039.41" y="96.81" width="2189.64" height="1623.78" xlink:href="event for me logo_Images\event for me logo_ImgID3.png"/>
   </g>
  </g>
  <path class="fil0 str0" d="M3360.94 921.4c83.2,175.83 522.94,-145.76 531.64,-367.32 6.75,-171.84 -192.39,-215.8 -157.2,260.13 21.07,285.04 26.41,603.24 57.37,584.56 9.01,-5.44 52.47,-134.03 45.07,-275.82 -7.41,-141.79 -88.89,-201.66 -59.34,-137.57 29.55,64.09 222.28,117.08 301.51,36.05 19.22,-19.66 24.28,-1.33 10.85,10.84 -76.49,69.39 -6.36,209.79 95.9,159.02 93.26,-46.29 94.21,-178.48 24.04,-199.66 -77.19,-23.29 -26.63,21.25 34.53,36.95 79.41,20.38 251.52,-53.9 282.8,-141.11 23.75,-71.89 -59.74,-72.95 -55.78,-9.59 1.43,22.85 16.69,141.73 128.68,117.15 29.6,-6.5 35.5,1.42 23.06,21.39 -36.65,58.83 -31.87,183.31 33.57,207.14 67.53,24.58 191.6,-70.52 232.32,-119.4"/>
  <path class="fil0 str1" d="M2596.24 766.82c61.28,-27.6 153.66,-42.22 229.35,-53.84m-1764.19 21.96c103.58,-223.1 -91.69,-418.73 -289.5,-378.91 -361.29,72.73 -298.06,601.61 7.18,624.28 127.09,9.44 86.42,-116.96 -27.03,-70.18 -244.73,100.9 -121.67,460.85 113.52,346.87 104.02,-50.41 205.68,-194.28 271.65,-243.36 25.22,-18.76 32.5,-14.4 42.97,8.3 25.63,55.57 41.32,120.5 62.71,176.72 12.22,32.13 22.2,27.92 42.46,16.95 48.74,-26.38 111.46,-114.98 116.06,-175.51 1.72,-22.64 0.81,-17.99 13.58,-8.4 16.17,12.15 235.15,126.65 336.68,9.98 66.82,-76.79 10.13,-205.41 -67.33,-79.96 -51.78,83.86 -49.18,244.81 72.38,263.79 124.87,19.49 261.86,-109.95 307.75,-202.57 38.68,-78.06 62.82,-86.41 71.27,-29.7 18.39,123.41 13.54,166.8 14.57,190.07 1.27,28.93 7.9,27.25 11.81,-0.57 10.77,-76.49 161.37,-275.17 174.3,-173.61 9.33,73.29 17.75,207.84 74.15,195 92.33,-21.02 245.85,-277.53 302.96,-475.68 25.53,-88.56 27.88,-146.93 24.07,-129.94 -21.5,95.81 -86.07,650.24 80.65,646.68 90.88,-1.94 216.31,-104.28 294.09,-177.11"/>
  <path class="fil0 str1" d="M5174.83 1026.93c5.05,-37.66 116.43,-117.41 126.33,-68.58 12.28,60.51 13.19,181.83 9.53,224.78 -1.77,20.72 6.85,18.81 9.29,0.52 5.34,-40.11 18.53,-68.13 36.72,-92.64 31.28,-42.12 145.49,-206.52 154.94,-64.78 3.36,50.44 9.44,107.69 10.6,135.31 0.59,14.08 7.33,15.71 7.67,0.53 0.57,-25.28 9.5,-44.56 23.97,-64.47 123.67,-170.03 147.07,-152.89 154.77,-86.41 4.96,42.83 7.9,130.97 27.9,160.76 17.96,26.76 48.13,38.23 87.05,32.81 151.48,-21.11 361.84,-227.12 274.92,-320.61 -36.19,-38.93 -132.84,83.72 -100.75,219.63 27.93,118.25 213.77,141.7 384.7,-57.88"/>
  <path class="fil0 str2" d="M3360.94 921.4c83.2,175.83 522.94,-145.76 531.64,-367.32 6.75,-171.84 -192.39,-215.8 -157.2,260.13 21.07,285.04 26.41,603.24 57.37,584.56 9.01,-5.44 52.47,-134.03 45.07,-275.82 -7.41,-141.79 -88.89,-201.66 -59.34,-137.57 29.55,64.09 222.28,117.08 301.51,36.05 19.22,-19.66 24.28,-1.33 10.85,10.84 -76.49,69.39 -6.36,209.79 95.9,159.02 93.26,-46.29 94.21,-178.48 24.04,-199.66 -77.19,-23.29 -26.63,21.25 34.53,36.95 79.41,20.38 251.52,-53.9 282.8,-141.11 23.75,-71.89 -59.74,-72.95 -55.78,-9.59 1.43,22.85 16.69,141.73 128.68,117.15 29.6,-6.5 35.5,1.42 23.06,21.39 -36.65,58.83 -31.87,183.31 33.57,207.14 67.53,24.58 191.6,-70.52 232.32,-119.4"/>
 </g>
</svg>
